<?xml version="1.0" encoding="UTF-8"?>
<svg version="1.1" xmlns="http://www.w3.org/2000/svg" width="512" height="512">
<path d="M0 0 C0.99336868 0.00031723 0.99336868 0.00031723 2.00680542 0.00064087 C12.66792921 0.03458786 22.32165941 0.9732129 32.4375 4.375 C33.5409375 4.725625 34.644375 5.07625 35.78125 5.4375 C61.77828028 14.52384068 83.28057742 33.58053374 95.41796875 58.30078125 C101.13116257 70.52713541 105.52882396 83.88430977 105.58467102 97.48016357 C105.59540398 99.28359474 105.59540398 99.28359474 105.60635376 101.12345886 C105.60904266 102.42946548 105.61173157 103.73547211 105.61450195 105.08105469 C105.62077422 106.48128932 105.62742169 107.88152232 105.63441467 109.28175354 C105.65538342 113.87011574 105.66581688 118.45847797 105.67578125 123.046875 C105.67983282 124.63450385 105.68394986 126.22213253 105.68813133 127.80976105 C105.70717475 135.27847082 105.72140221 142.74717082 105.7297433 150.21590018 C105.73948404 158.79329398 105.76572384 167.37042755 105.80624419 175.94772983 C105.83659088 182.60370542 105.85122997 189.25960727 105.85452431 195.91565061 C105.85685559 199.87783211 105.86555981 203.83973544 105.89098549 207.80184174 C106.10448076 242.90644221 99.7215708 272.57624073 74.4375 298.375 C52.25217119 320.08704179 24.31118082 327.87399858 -6.0703125 327.59375 C-13.53798299 327.42193129 -20.3585854 326.43198921 -27.5625 324.375 C-28.55378906 324.10816406 -29.54507813 323.84132813 -30.56640625 323.56640625 C-44.31481232 319.44737647 -56.54052685 312.47378429 -67.5625 303.375 C-68.33851563 302.76269531 -69.11453125 302.15039062 -69.9140625 301.51953125 C-89.05316628 285.66045055 -101.49511483 260.80296376 -104.5625 236.375 C-105.25418933 226.22546578 -105.13455043 216.03120687 -105.09980202 205.86295891 C-105.08952545 201.90362394 -105.09910763 197.94432216 -105.10534668 193.98498535 C-105.11258116 187.34164669 -105.10314685 180.69848712 -105.08398438 174.05517578 C-105.0622237 166.42400013 -105.06927808 158.79325228 -105.09129 151.16208696 C-105.10956493 144.55678976 -105.11194386 137.95161975 -105.10153532 131.34630537 C-105.09536617 127.42459087 -105.09427947 123.50307601 -105.10768127 119.58137512 C-105.19874732 88.68685722 -101.22615707 61.91037386 -80.5625 37.375 C-79.91925781 36.58609375 -79.27601563 35.7971875 -78.61328125 34.984375 C-58.92090783 11.83400625 -30.06102237 -0.03973573 0 0 Z " fill="#C9C9D5" transform="translate(255.5625,-0.375)"/>
<path d="M0 0 C5.21121125 4.36287453 9.63075045 10.24815763 11 17 C11.11190596 18.81301518 11.17749246 20.6291549 11.2109375 22.4453125 C12.17803379 62.01566893 22.46197003 97.91905708 51.95703125 126.19921875 C78.47207784 149.57099021 109.91641656 159.60224239 145 158 C177.9952226 155.47920998 206.75287881 138.54511719 228.484375 114.1484375 C245.69244838 93.3452502 255.66090857 66.01183286 256.17578125 39.12890625 C256.19962891 37.89462891 256.22347656 36.66035156 256.24804688 35.38867188 C256.29094697 32.84196647 256.32223473 30.29503846 256.34179688 27.74804688 C256.55565651 18.21388595 257.85276501 8.94870069 265 2 C272.69870119 -3.8771335 279.72720261 -5.69821294 289.328125 -4.53125 C296.76108837 -3.05335085 302.45300554 0.9919775 307 7 C311.00068138 14.91007984 311.60762721 22.45165142 311.4375 31.1875 C311.41550537 33.01800903 311.41550537 33.01800903 311.39306641 34.88549805 C310.61096632 73.27565289 300.02121812 111.50775985 276 142 C275.38898438 142.80179688 274.77796875 143.60359375 274.1484375 144.4296875 C266.43530569 154.36470914 257.89579036 164.18494701 248 172 C247.45923828 172.43135254 246.91847656 172.86270508 246.36132812 173.30712891 C236.75216824 180.92073574 226.90233858 187.40000681 216 193 C215.3395166 193.34514648 214.6790332 193.69029297 213.99853516 194.04589844 C198.03462821 202.30509732 179.17124037 210 161 210 C161 224.85 161 239.7 161 255 C173.71382082 254.88180631 173.71382082 254.88180631 186.42724609 254.72973633 C199.23930504 254.62631848 209.84316377 255.37235287 220 264 C227.38074485 271.48285001 231.14117934 280.05546332 231.4375 290.5625 C230.99531429 302.60136249 226.8899591 310.52894801 218.25 318.75 C209.63891204 325.7599267 200.99072399 326.58724299 190.171875 326.51757812 C188.8073248 326.5230101 187.44278048 326.53013875 186.07824707 326.53881836 C182.40045055 326.55692737 178.72310695 326.55003629 175.04530334 326.53730202 C171.17960472 326.52710935 167.31394249 326.53658497 163.44824219 326.54284668 C156.95891423 326.55010498 150.46976892 326.54058338 143.98046875 326.52148438 C136.49925981 326.49971901 129.01848705 326.50677168 121.53728867 326.52879 C115.09108649 326.54699609 108.64501492 326.54947699 102.19879532 326.53903532 C98.35881663 326.53282887 94.51904235 326.53188552 90.67907715 326.54518127 C87.06729416 326.55681551 83.45606846 326.54857793 79.84434509 326.52560425 C77.90213772 326.51787275 75.95988269 326.52960813 74.0177002 326.54211426 C62.22547827 326.42913489 54.62263055 323.38798147 46.12890625 315.2265625 C39.35850107 308.14558827 36.86933661 300.79564336 36.5625 291.125 C36.84120623 280.33674653 40.39844957 271.70671022 48 264 C59.85098965 253.93326715 72.89855312 254.61111777 87.625 254.8125 C94.01875 254.874375 100.4125 254.93625 107 255 C107 240.15 107 225.3 107 210 C103.37 209.67 99.74 209.34 96 209 C92.51948586 208.18805635 89.16296624 207.33464593 85.75 206.3125 C84.83669922 206.04268311 83.92339844 205.77286621 82.98242188 205.49487305 C48.46061272 195.0782871 16.87797554 174.95614409 -5 146 C-5.69867188 145.14019531 -6.39734375 144.28039062 -7.1171875 143.39453125 C-32.53758101 111.32503125 -42.95260836 71.54274015 -43.4375 31.1875 C-43.45989746 30.03741455 -43.48229492 28.8873291 -43.50537109 27.70239258 C-43.48147013 19.07980476 -42.11107724 11.4645562 -37.10546875 4.28125 C-26.60309472 -5.4724823 -12.48952567 -8.45972448 0 0 Z " fill="#111117" transform="translate(122,186)"/>
<path d="M0 0 C0.99336868 0.00031723 0.99336868 0.00031723 2.00680542 0.00064087 C12.66792921 0.03458786 22.32165941 0.9732129 32.4375 4.375 C33.5409375 4.725625 34.644375 5.07625 35.78125 5.4375 C61.77828028 14.52384068 83.28057742 33.58053374 95.41796875 58.30078125 C101.13116257 70.52713541 105.52882396 83.88430977 105.58467102 97.48016357 C105.59540398 99.28359474 105.59540398 99.28359474 105.60635376 101.12345886 C105.60904266 102.42946548 105.61173157 103.73547211 105.61450195 105.08105469 C105.62077422 106.48128932 105.62742169 107.88152232 105.63441467 109.28175354 C105.65538342 113.87011574 105.66581688 118.45847797 105.67578125 123.046875 C105.67983282 124.63450385 105.68394986 126.22213253 105.68813133 127.80976105 C105.70717475 135.27847082 105.72140221 142.74717082 105.7297433 150.21590018 C105.73948404 158.79329398 105.76572384 167.37042755 105.80624419 175.94772983 C105.83659088 182.60370542 105.85122997 189.25960727 105.85452431 195.91565061 C105.85685559 199.87783211 105.86555981 203.83973544 105.89098549 207.80184174 C106.10448076 242.90644221 99.7215708 272.57624073 74.4375 298.375 C52.25217119 320.08704179 24.31118082 327.87399858 -6.0703125 327.59375 C-13.53798299 327.42193129 -20.3585854 326.43198921 -27.5625 324.375 C-28.55378906 324.10816406 -29.54507813 323.84132813 -30.56640625 323.56640625 C-44.31481232 319.44737647 -56.54052685 312.47378429 -67.5625 303.375 C-68.33851563 302.76269531 -69.11453125 302.15039062 -69.9140625 301.51953125 C-89.05316628 285.66045055 -101.49511483 260.80296376 -104.5625 236.375 C-105.25418933 226.22546578 -105.13455043 216.03120687 -105.09980202 205.86295891 C-105.08952545 201.90362394 -105.09910763 197.94432216 -105.10534668 193.98498535 C-105.11258116 187.34164669 -105.10314685 180.69848712 -105.08398438 174.05517578 C-105.0622237 166.42400013 -105.06927808 158.79325228 -105.09129 151.16208696 C-105.10956493 144.55678976 -105.11194386 137.95161975 -105.10153532 131.34630537 C-105.09536617 127.42459087 -105.09427947 123.50307601 -105.10768127 119.58137512 C-105.19874732 88.68685722 -101.22615707 61.91037386 -80.5625 37.375 C-79.91925781 36.58609375 -79.27601563 35.7971875 -78.61328125 34.984375 C-58.92090783 11.83400625 -30.06102237 -0.03973573 0 0 Z M-68.93066406 45.97705078 C-78.05967528 57.33961331 -88.67732021 73.51578029 -88.5859375 88.52539062 C-88.57820312 89.79576172 -88.57046875 91.06613281 -88.5625 92.375 C-87.728041 92.38379936 -87.728041 92.38379936 -86.87672424 92.39277649 C-81.05201335 92.45703887 -75.22783831 92.5415405 -69.40356445 92.63745117 C-67.23404027 92.67056998 -65.06443262 92.69864193 -62.89477539 92.72143555 C-59.76412611 92.75522212 -56.63423274 92.80754978 -53.50390625 92.86328125 C-52.54416397 92.86967117 -51.58442169 92.8760611 -50.59559631 92.88264465 C-41.9136804 93.06938368 -34.4693112 94.88094564 -27.5625 100.375 C-20.94005924 107.45947151 -18.15341125 114.31834384 -18.28125 123.90625 C-19.05577594 130.70486659 -22.22870721 137.98144908 -27.5625 142.375 C-38.62996376 150.97490148 -52.54482906 149.26822232 -65.8125 149.25 C-68.21486554 149.26814818 -70.61721252 149.28895747 -73.01953125 149.3125 C-78.86800558 149.369007 -84.71282915 149.3707426 -90.5625 149.375 C-90.5625 158.945 -90.5625 168.515 -90.5625 178.375 C-86.92476562 178.38917969 -83.28703125 178.40335938 -79.5390625 178.41796875 C-75.99095576 178.44863831 -72.44303339 178.48771461 -68.89501953 178.52758789 C-66.44131047 178.55069341 -63.98750328 178.56514599 -61.53369141 178.57055664 C-57.99319833 178.57990021 -54.45423303 178.6210127 -50.9140625 178.66796875 C-49.82823883 178.6640361 -48.74241516 178.66010345 -47.62368774 178.65605164 C-38.78382647 178.82296337 -31.46464072 181.09821415 -25.1875 187.5625 C-20.3922702 193.85623911 -17.80601695 200.92901 -18.1796875 208.86328125 C-19.34803767 216.52908902 -22.72342565 223.25951814 -28.5625 228.375 C-35.78239553 233.141556 -42.18218928 234.11349807 -50.6953125 234.08203125 C-51.81316132 234.09715256 -52.93101013 234.11227386 -54.08273315 234.12785339 C-57.61786442 234.17049546 -61.15213792 234.17954616 -64.6875 234.1875 C-67.09898077 234.2106624 -69.51044141 234.23603132 -71.921875 234.26367188 C-77.80209168 234.32629215 -83.68197636 234.36141235 -89.5625 234.375 C-89.25742176 236.11847621 -88.94898527 237.86136498 -88.63916016 239.60400391 C-88.4677652 240.57463776 -88.29637024 241.54527161 -88.11978149 242.5453186 C-83.51497156 265.92694018 -68.85114525 285.07165045 -49.5625 298.375 C-48.74265625 298.94863281 -47.9228125 299.52226562 -47.078125 300.11328125 C-33.14405281 309.16107645 -17.57272337 312.72470724 -1.1875 312.625 C0.07578125 312.63273437 1.3390625 312.64046875 2.640625 312.6484375 C23.86220063 312.6043178 43.37470046 305.37175104 59.4375 291.375 C60.0253125 290.93027344 60.613125 290.48554688 61.21875 290.02734375 C75.78651112 278.79230156 87.06594411 258.3751498 89.74856567 240.27633667 C89.87133377 239.22471848 89.87133377 239.22471848 89.99658203 238.15185547 C90.14208496 236.90549316 90.28758789 235.65913086 90.4375 234.375 C89.82077423 234.37357498 89.20404846 234.37214996 88.56863403 234.37068176 C82.11106706 234.35089377 75.6544338 234.29642604 69.19726562 234.22241211 C66.79206049 234.19930999 64.38675531 234.18485481 61.98144531 234.17944336 C58.51043915 234.17009724 55.04098983 234.12897962 51.5703125 234.08203125 C50.50636261 234.0859639 49.44241272 234.08989655 48.34622192 234.09394836 C39.57811281 233.92514281 32.28303897 231.59614193 26.0625 225.1875 C21.46697973 219.16893511 18.70521855 212.21365681 19.12109375 204.59375 C20.30011767 196.32602668 23.75472197 188.94916581 30.5 183.80078125 C35.18920719 180.79244796 38.92224588 179.26508905 44.55151367 179.16967773 C45.59236618 179.14973251 46.63321869 179.12978729 47.70561218 179.10923767 C48.82756485 179.09252518 49.94951752 179.07581268 51.10546875 179.05859375 C52.25541824 179.03781265 53.40536774 179.01703156 54.59016418 178.99562073 C58.26838125 178.93016658 61.94667048 178.87125926 65.625 178.8125 C68.11654396 178.76931087 70.60808059 178.72569645 73.09960938 178.68164062 C79.21216665 178.5736881 85.32477767 178.47458334 91.4375 178.375 C91.4375 168.805 91.4375 159.235 91.4375 149.375 C87.94414062 149.34921875 84.45078125 149.3234375 80.8515625 149.296875 C77.44246602 149.25838708 74.03351733 149.21324843 70.62451172 149.16748047 C68.2678135 149.13937454 65.91102282 149.11810877 63.55419922 149.10400391 C60.15284243 149.08243082 56.75258513 149.03570529 53.3515625 148.984375 C52.30948639 148.98314636 51.26741028 148.98191772 50.1937561 148.98065186 C40.59600388 148.79145076 32.25080014 146.35052157 25.4375 139.375 C20.22831908 132.02695009 18.13203013 124.28223249 19.4375 115.375 C22.37793696 106.88854316 26.51898522 100.38569108 34.59542847 96.27728271 C41.08214397 93.48764382 46.67612827 92.77445699 53.6953125 92.765625 C54.72437714 92.74908875 55.75344177 92.73255249 56.81369019 92.71551514 C60.06335623 92.66737743 63.31255553 92.64574022 66.5625 92.625 C68.78127305 92.59681173 71.00002469 92.56688036 73.21875 92.53515625 C78.6249162 92.46162822 84.03095299 92.40978609 89.4375 92.375 C89.28656251 90.77600889 89.13307585 89.17725828 88.97851562 87.57861328 C88.85071716 86.24311935 88.85071716 86.24311935 88.72033691 84.88064575 C86.50705609 65.27324156 72.58062246 46.59010829 57.8515625 34.203125 C18.87705188 4.68844706 -36.42014935 7.90888562 -68.93066406 45.97705078 Z " fill="#121218" transform="translate(255.5625,-0.375)"/>
<path d="M0 0 C3.34285992 1.22142959 5.37544282 2.24520341 7.6484375 4.9921875 C9.58853046 9.30973541 9.3561207 13.25623808 9.375 17.9375 C9.96090902 40.08020232 13.56922113 61.8589745 23 82 C23.35610352 82.76086914 23.71220703 83.52173828 24.07910156 84.30566406 C39.46159013 116.41366675 66.36823039 142.49019534 100 155 C136.1792995 167.39856448 173.54486447 165.4298676 208.2109375 149.0546875 C241.50739355 132.52194094 265.51036149 102.91895159 277.62426758 68.11303711 C283.00369057 51.41280916 284.46493663 33.82173354 284.58544922 16.36279297 C284.59979004 15.33943848 284.61413086 14.31608398 284.62890625 13.26171875 C284.62963135 12.36412842 284.63035645 11.46653809 284.63110352 10.54174805 C285.23046194 6.41208519 287.03588056 3.77665177 290.25 1.1875 C293.76669597 -0.33107326 296.19960827 -0.40718483 300 0 C304.13921377 1.82895492 306.49605903 4.26203157 309 8 C309.53344727 11.26025391 309.53344727 11.26025391 309.56640625 14.9765625 C309.57482544 15.65078247 309.58324463 16.32500244 309.59191895 17.01965332 C309.60814918 19.22230939 309.5891644 21.4224672 309.5625 23.625 C309.55757538 24.38198181 309.55265076 25.13896362 309.5475769 25.91888428 C309.1974825 65.56459756 295.35732927 104.58184059 268.07421875 133.76953125 C266.17519913 135.81160319 264.40162345 137.91451582 262.625 140.0625 C258.29130948 145.02382845 253.18417752 148.96709594 248 153 C247.071875 153.74378906 246.14375 154.48757813 245.1875 155.25390625 C232.6121048 165.07843375 218.7104802 171.98994285 204 178 C203.09378906 178.38929688 202.18757812 178.77859375 201.25390625 179.1796875 C193.74791838 182.20081834 185.88516513 183.57956686 177.96484375 185.0703125 C177.15515137 185.2240332 176.34545898 185.37775391 175.51123047 185.53613281 C173.76317837 185.85902791 172.01183114 186.16437217 170.25830078 186.45605469 C169.36997559 186.61235352 168.48165039 186.76865234 167.56640625 186.9296875 C166.76275635 187.06358887 165.95910645 187.19749023 165.13110352 187.33544922 C162.56156108 188.13672021 161.65080334 188.88049979 160 191 C159.52750495 193.47829577 159.52750495 193.47829577 159.56762695 196.29760742 C159.53793571 197.91894844 159.53793571 197.91894844 159.50764465 199.57304382 C159.50125473 200.73874405 159.49486481 201.90444427 159.48828125 203.10546875 C159.47033005 204.29981033 159.45237885 205.49415192 159.43388367 206.72468567 C159.37962967 210.54558768 159.34583571 214.36636371 159.3125 218.1875 C159.27934035 220.77540822 159.24485198 223.36329977 159.20898438 225.95117188 C159.12138924 232.30080092 159.06144625 238.64984815 159 245 C151.08 245 143.16 245 135 245 C134.96261719 241.13667969 134.92523438 237.27335938 134.88671875 233.29296875 C134.84053492 229.55975615 134.7892897 225.82664508 134.73754883 222.09350586 C134.70425257 219.49493557 134.67623546 216.89629213 134.65356445 214.29760742 C134.62010549 210.56657681 134.56779271 206.83621939 134.51171875 203.10546875 C134.50213387 201.35691841 134.50213387 201.35691841 134.49235535 199.57304382 C134.47256119 198.49214981 134.45276703 197.4112558 134.43237305 196.29760742 C134.42126999 195.34496506 134.41016693 194.39232269 134.39872742 193.41081238 C133.93126594 190.58441553 133.27546896 189.6890373 131 188 C128.58978429 187.41353807 128.58978429 187.41353807 125.75 187.1875 C83.58607512 181.48074954 44.02283392 158.9766316 18.04296875 125.20703125 C-4.28001608 95.27907909 -15.21316209 60.92174902 -15.6875 23.75 C-15.70498291 23.0125354 -15.72246582 22.2750708 -15.74047852 21.51525879 C-15.9996622 8.27689697 -15.9996622 8.27689697 -12.08203125 3.578125 C-8.19993773 -0.07212209 -5.34044672 -0.35602978 0 0 Z " fill="#92929E" transform="translate(109,196)"/>
<path d="M0 0 C1.10605087 -0.00571014 2.21210175 -0.01142029 3.35166931 -0.01730347 C5.16504791 -0.01898026 5.16504791 -0.01898026 7.01506042 -0.02069092 C8.93027748 -0.02813828 8.93027748 -0.02813828 10.88418579 -0.03573608 C14.3843068 -0.04883658 17.88440865 -0.05530042 21.38455033 -0.05974674 C23.57297602 -0.06268121 25.7613965 -0.06678672 27.94981956 -0.07125092 C34.80182044 -0.08491954 41.65380939 -0.09458935 48.50582296 -0.09845281 C56.40638896 -0.1029324 64.30678186 -0.12047829 72.20729524 -0.1494534 C78.32038946 -0.17109236 84.43343504 -0.18115826 90.54656714 -0.18249393 C94.19482726 -0.18354035 97.8429245 -0.18941347 101.49114418 -0.20731354 C105.56302468 -0.2269043 109.63454421 -0.22249646 113.70646667 -0.21600342 C114.90931305 -0.2252182 116.11215942 -0.23443298 117.35145569 -0.243927 C125.95035037 -0.20095875 132.16380046 0.92211822 138.55485535 7.14044189 C143.16928491 13.12672889 143.51324833 18.72030654 142.55485535 26.14044189 C140.82896089 32.25766545 136.92796918 36.80613806 131.55485535 40.14044189 C125.56572537 42.8527501 119.41624572 42.43587173 112.9752655 42.43096924 C111.07665016 42.44104507 111.07665016 42.44104507 109.13967896 42.45132446 C105.67884418 42.46893804 102.21810841 42.47367784 98.75723314 42.47495604 C96.59189744 42.47638072 94.42658666 42.4806563 92.26125717 42.48595047 C84.69829977 42.50443473 77.13541271 42.51262302 69.57243347 42.51104736 C62.53663016 42.50984609 55.50113366 42.53094948 48.46540797 42.56253469 C42.41254353 42.58873363 36.35977909 42.59941316 30.30685842 42.59813654 C26.69711909 42.59762801 23.08765268 42.60325071 19.47797012 42.62449265 C15.44951325 42.64755354 11.42173915 42.63833217 7.39323425 42.62628174 C6.20647598 42.63752075 5.01971771 42.64875977 3.79699707 42.66033936 C-3.96123577 42.60141777 -9.42483456 41.60970563 -15.46858215 36.39434814 C-15.91459778 35.83618408 -16.3606134 35.27802002 -16.82014465 34.70294189 C-17.28162903 34.14735596 -17.7431134 33.59177002 -18.21858215 33.01934814 C-22.06678208 27.12449411 -22.43591534 20.98892701 -21.44514465 14.14044189 C-18.90260544 8.21369531 -15.12413513 4.10339345 -9.44514465 1.14044189 C-6.25849365 0.12699331 -3.33429384 0.01032484 0 0 Z " fill="#81818D" transform="translate(195.4451446533203,455.85955810546875)"/>
<path d="M0 0 C0.66 0.721875 1.32 1.44375 2 2.1875 C7.34577044 7.54854407 13.39556306 11.07350356 21.0222168 11.20532227 C22.55346443 11.2352401 22.55346443 11.2352401 24.11564636 11.26576233 C25.21572525 11.28247482 26.31580414 11.29918732 27.44921875 11.31640625 C29.14084892 11.3475779 29.14084892 11.3475779 30.86665344 11.37937927 C34.4735396 11.44482847 38.08049929 11.50373844 41.6875 11.5625 C44.13086702 11.60568961 46.57422656 11.64930404 49.01757812 11.69335938 C55.01164074 11.80050516 61.00577671 11.90228029 67 12 C66.69492176 13.74347621 66.38648527 15.48636498 66.07666016 17.22900391 C65.81956772 18.68495468 65.81956772 18.68495468 65.55728149 20.1703186 C61.09712862 42.81742199 46.72254017 62.74347339 27.89746094 75.76855469 C7.16762509 89.22214347 -17.34286021 93.1644958 -41.71679688 89.60302734 C-45.61412319 88.75948964 -49.33610258 87.56924096 -53 86 C-52.195625 85.071875 -51.39125 84.14375 -50.5625 83.1875 C-43.2129784 74.5826053 -36.30078042 65.88946351 -30.0625 56.4375 C-29.3701123 55.39102295 -28.67772461 54.3445459 -27.96435547 53.26635742 C-17.03531015 36.57961469 -7.09125764 18.6916302 0 0 Z " fill="#B5B5C0" transform="translate(279,222)"/>
<path d="M0 0 C17.07274226 2.58002262 33.34983487 17.31314947 43.203125 30.62548828 C51.97096207 42.94814242 59 56.6227801 59 72 C43.82 72 28.64 72 13 72 C12.608125 68.060625 12.21625 64.12125 11.8125 60.0625 C9.81326667 41.41285048 6.23764246 23.23834707 0.91796875 5.25390625 C0 2 0 2 0 0 Z " fill="#B6B6C1" transform="translate(286,20)"/>
<path d="M0 0 C0.96069397 0.00015106 1.92138794 0.00030212 2.91119385 0.00045776 C3.94049011 0.01078033 4.96978638 0.02110291 6.03027344 0.03173828 C7.0900238 0.03456818 8.14977417 0.03739807 9.24163818 0.04031372 C12.62442341 0.05150344 16.00694331 0.07660608 19.38964844 0.10205078 C21.68391545 0.11208213 23.97818661 0.12120771 26.27246094 0.12939453 C31.89504108 0.14973672 37.51704796 0.18888833 43.13964844 0.22705078 C43.13964844 9.46705078 43.13964844 18.70705078 43.13964844 28.22705078 C36.41288749 28.31898829 29.68831492 28.39859736 22.96142578 28.44677734 C20.67424118 28.46686595 18.38710776 28.49414206 16.10009766 28.52880859 C12.80846509 28.57744636 9.51751286 28.60004757 6.22558594 28.61767578 C4.6971254 28.64864349 4.6971254 28.64864349 3.13778687 28.68023682 C-2.87657917 28.68212854 -6.26865334 28.21299627 -10.86035156 24.22705078 C-14.44267123 20.28649915 -14.41994259 16.00037788 -14.28222656 10.89111328 C-13.61026776 6.64781787 -12.05439446 5.05813426 -8.86035156 2.22705078 C-5.8043948 0.36519063 -3.55863147 -0.01872964 0 0 Z " fill="#9696A0" transform="translate(302.8603515625,191.77294921875)"/>
<path d="M0 0 C1.47118538 0.00022659 1.47118538 0.00022659 2.97209167 0.00045776 C4.028423 0.01078033 5.08475433 0.02110291 6.1730957 0.03173828 C7.25645706 0.03456818 8.33981842 0.03739807 9.45600891 0.04031372 C12.92041003 0.05151987 16.3845538 0.07662544 19.84887695 0.10205078 C22.19587843 0.11208001 24.54288396 0.12120596 26.88989258 0.12939453 C32.64723325 0.14976008 38.40401661 0.18890853 44.16137695 0.22705078 C44.16137695 9.46705078 44.16137695 18.70705078 44.16137695 28.22705078 C37.43461601 28.31898829 30.71004344 28.39859736 23.9831543 28.44677734 C21.69596969 28.46686595 19.40883627 28.49414206 17.12182617 28.52880859 C13.83019361 28.57744636 10.53924138 28.60004757 7.24731445 28.61767578 C5.71885391 28.64864349 5.71885391 28.64864349 4.15951538 28.68023682 C-1.85485066 28.68212854 -5.24692483 28.21299627 -9.83862305 24.22705078 C-13.42140548 20.28599011 -13.39524067 16.00061798 -13.2644043 10.89111328 C-12.59208665 6.68450193 -10.9660706 5.06357298 -7.83862305 2.22705078 C-4.59577526 0.06515226 -3.73766084 -0.01921677 0 0 Z " fill="#9696A0" transform="translate(301.838623046875,106.77294921875)"/>
<path d="M0 0 C6.58405375 -0.06895634 13.16684912 -0.12866604 19.75097656 -0.16479492 C21.98962658 -0.17985964 24.22824719 -0.20031533 26.46679688 -0.22631836 C29.68887602 -0.26280283 32.91056411 -0.27974983 36.1328125 -0.29296875 C37.62846237 -0.31619453 37.62846237 -0.31619453 39.15432739 -0.33988953 C45.82645764 -0.34149699 50.13869619 0.59048101 55.375 5 C57.86289087 9.59302929 57.73506976 13.89201523 57 19 C54.64198706 24.07879709 52.15925991 26.00971435 47 28 C43.37248429 28.39860585 39.77835637 28.34958 36.1328125 28.29296875 C35.09808807 28.28872391 34.06336365 28.28447906 32.99728394 28.28010559 C29.70625319 28.26336996 26.41584434 28.22572649 23.125 28.1875 C20.8880297 28.17244658 18.65104977 28.15875933 16.4140625 28.14648438 C10.94227845 28.11604047 5.47183187 28.05730778 0 28 C0 18.76 0 9.52 0 0 Z " fill="#A6A6B2" transform="translate(166,192)"/>
<path d="M0 0 C6.72676094 -0.09193751 13.45133351 -0.17154658 20.17822266 -0.21972656 C22.46540726 -0.23981517 24.75254068 -0.26709128 27.03955078 -0.30175781 C30.33118334 -0.35039558 33.62213557 -0.37299679 36.9140625 -0.390625 C37.93303619 -0.41127014 38.95200989 -0.43191528 40.00186157 -0.45318604 C46.01813145 -0.45507836 49.40287258 0.01996154 54 4 C56.73946328 6.89004688 57.43125781 8.84870701 57.4375 12.8125 C57.26096169 18.01654242 56.19379779 20.8816818 53 25 C47.5681265 28.68050515 42.44588733 28.3910038 36.1328125 28.29296875 C35.09808807 28.28872391 34.06336365 28.28447906 32.99728394 28.28010559 C29.70625319 28.26336996 26.41584434 28.22572649 23.125 28.1875 C20.8880297 28.17244658 18.65104977 28.15875933 16.4140625 28.14648438 C10.94227845 28.11604047 5.47183187 28.05730778 0 28 C0 18.76 0 9.52 0 0 Z " fill="#A6A6B2" transform="translate(166,107)"/>
<path d="M0 0 C16.17 0 32.34 0 49 0 C49 9.57 49 19.14 49 29 C31.18 29.33 13.36 29.66 -5 30 C-4.360625 25.606875 -3.72125 21.21375 -3.0625 16.6875 C-2.86277588 15.30522217 -2.66305176 13.92294434 -2.45727539 12.4987793 C-2.29735107 11.40992432 -2.13742676 10.32106934 -1.97265625 9.19921875 C-1.72914429 7.52605591 -1.72914429 7.52605591 -1.48071289 5.8190918 C-1 3 -1 3 0 0 Z " fill="#B2B2BC" transform="translate(298,149)"/>
<path d="M0 0 C0 8.91 0 17.82 0 27 C-5.40447513 25.91910497 -6.50466202 24.98080159 -10 21 C-11.98243375 17.0351325 -11.55323266 12.31035114 -11 8 C-8.75687923 3.59170475 -5.0815589 0 0 0 Z " fill="#A3A3AF" transform="translate(300,107)"/>
</svg>
